<?xml version="1.0" standalone="no"?>
<!DOCTYPE svg PUBLIC "-//W3C//DTD SVG 1.1//EN"
  "http://www.w3.org/Graphics/SVG/1.1/DTD/svg11.dtd">
<svg width="107mm" height="107mm" viewBox="-46 -49 107 107" xmlns="http://www.w3.org/2000/svg" version="1.1">
	<title>svgOutput</title>
	<desc>made with tinkercad</desc>
<path d="M -32.12200164794922 -32.45399856567383 L -30.706684112548828 -32.00082015991211 L -30.70486068725586 -32.00041580200195 L -30.702959060668945 -31.999807357788086 L -30.700294494628906 -31.998647689819336 L -30.70026206970215 -31.998632431030273 L -30.69097137451172 -31.993986129760742 L -30.5310001373291 -31.913999557495117 L -30.52386474609375 -31.92181968688965 L -29.884000778198242 -32.62300109863281 L -29.72286605834961 -32.768001556396484 L -26.038999557495117 -36.08300018310547 L -21.871999740600586 -39.152000427246094 L -17.422000885009766 -41.80099868774414 L -16.384000778198242 -42.28834915161133 L -12.732000350952148 -44.00299835205078 L -8.192000389099121 -45.616397857666016 L -7.8470001220703125 -45.73899841308594 L -2.813999891281128 -46.99100112915039 L -3.9421062443013855e-14 -47.40553283691406 L 2.318000078201294 -47.74700164794922 L 7.5 -48 L 8.192000389099121 -47.96621322631836 L 12.682000160217285 -47.74700164794922 L 16.384000778198242 -47.201656341552734 L 17.81399917602539 -46.99100112915039 L 22.847000122070312 -45.73899841308594 L 24.576000213623047 -45.12455749511719 L 27.73200035095215 -44.00299835205078 L 32.422000885009766 -41.80099868774414 L 32.768001556396484 -41.59503173828125 L 36.87200164794922 -39.152000427246094 L 40.959999084472656 -36.14118194580078 L 41.03900146484375 -36.08300018310547 L 44.49399948120117 -32.9739990234375 L 44.49418258666992 -32.974063873291016 L 45.61096954345703 -33.362632751464844 L 45.675819396972656 -33.38520050048828 L 45.67626190185547 -33.385353088378906 L 45.67999267578125 -33.386741638183594 L 45.68074417114258 -33.38690948486328 L 45.68296813964844 -33.38741683959961 L 45.909751892089844 -33.432029724121094 L 46.41204071044922 -33.53084182739258 L 47.07338333129883 -33.55275344848633 L 47.0761604309082 -33.55303955078125 L 47.07939529418945 -33.552696228027344 L 47.67599868774414 -33.47700119018555 L 47.678001403808594 -33.47621154785156 L 48.32838821411133 -33.198326110839844 L 48.69192886352539 -32.863670349121094 L 48.693580627441406 -32.86250305175781 L 48.69422149658203 -32.8615608215332 L 48.695072174072266 -32.860313415527344 L 48.75369644165039 -32.768001556396484 L 48.96200180053711 -32.439998626708984 L 49.099449157714844 -31.925067901611328 L 49.100135803222656 -31.920656204223633 L 49.13399887084961 -31.336999893188477 L 49.13339614868164 -31.33347511291504 L 49.03379440307617 -30.681095123291016 L 49.007965087890625 -30.601667404174805 L 48.72901916503906 -29.743860244750977 L 48.72629928588867 -29.737552642822266 L 48.718685150146484 -29.72144889831543 L 48.303924560546875 -28.8812198638916 L 48.301998138427734 -28.878000259399414 L 48.31374740600586 -28.865007400512695 L 48.36800003051758 -28.80500030517578 L 48.46737289428711 -28.672000885009766 L 49.152000427246094 -27.755693435668945 L 51.45899963378906 -24.667999267578125 L 54.125999450683594 -20.249000549316406 L 55.96639633178711 -16.384000778198242 L 56.34400177001953 -15.590999603271484 L 58.09199905395508 -10.739999771118164 L 59.35200119018555 -5.742000102996826 L 60 -1.4079999923706055 L 47.14899826049805 -1.4079999923706055 L 47.14899826049805 4.440892164675075e-17 L 47.14899826049805 11.720999717712402 L 59.80400085449219 11.720999717712402 L 59.35200119018555 14.741999626159668 L 58.93804931640625 16.384000778198242 L 58.09199905395508 19.739999771118164 L 56.34400177001953 24.590999603271484 L 54.125999450683594 29.249000549316406 L 52.00217819213867 32.768001556396484 L 51.45899963378906 33.667999267578125 L 49.152000427246094 36.75569152832031 L 48.36800003051758 37.80500030517578 L 46.7000617980957 39.63393020629883 L 46.70000076293945 39.63399887084961 L 46.700443267822266 39.6348876953125 L 46.80500030517578 39.89692306518555 L 47.18394088745117 40.84661102294922 L 47.1852912902832 40.849937438964844 L 47.18600082397461 40.85200119018555 L 47.210845947265625 40.959999084472656 L 47.324432373046875 41.45376968383789 L 47.35531997680664 41.588043212890625 L 47.356163024902344 41.59195327758789 L 47.401981353759766 42.58197784423828 L 47.402103424072266 42.583778381347656 L 47.401947021484375 42.58525848388672 L 47.40176010131836 42.58699417114258 L 47.40129089355469 42.588375091552734 L 47.224998474121094 43.42900085449219 L 47.060001373291016 43.731998443603516 L 47.058135986328125 43.73387145996094 L 47.05695343017578 43.73451614379883 L 46.130672454833984 44.4147834777832 L 46.127845764160156 44.41544723510742 L 46.12622833251953 44.415462493896484 L 45.815330505371094 44.40985870361328 L 45.055999755859375 44.39616394042969 L 44.30354690551758 44.38259506225586 L 44.29999923706055 44.38199996948242 L 44.29613494873047 44.38058090209961 L 44.29243850708008 44.378883361816406 L 42.832000732421875 43.777000427246094 L 42.625 43.65599822998047 L 41.069007873535156 45.055999755859375 L 41.03900146484375 45.08300018310547 L 40.959999084472656 45.14118194580078 L 36.87200164794922 48.152000427246094 L 35.19211959838867 49.152000427246094 L 32.768001556396484 50.59503173828125 L 32.422000885009766 50.80099868774414 L 27.73200035095215 53.00299835205078 L 22.847000122070312 54.73899841308594 L 17.81399917602539 55.99100112915039 L 16.384000778198242 56.201656341552734 L 12.682000160217285 56.74700164794922 L 7.5 57 L 2.318000078201294 56.74700164794922 L 0 56.40553283691406 L -2.813999891281128 55.99100112915039 L -7.8470001220703125 54.73899841308594 L -12.732000350952148 53.00299835205078 L -16.384000778198242 51.28834915161133 L -17.422000885009766 50.80099868774414 L -20.192121505737305 49.152000427246094 L -21.871999740600586 48.152000427246094 L -24.576000213623047 46.160499572753906 L -26.038999557495117 45.08300018310547 L -26.06899642944336 45.055999755859375 L -26.650318145751953 44.53274154663086 L -26.87141227722168 44.33373260498047 L -26.899999618530273 44.30799865722656 L -27.865468978881836 44.743682861328125 L -27.921524047851562 44.76898193359375 L -27.92386817932129 44.77011489868164 L -27.925987243652344 44.77099609375 L -27.926000595092773 44.770999908447266 L -27.930095672607422 44.772220611572266 L -27.93202018737793 44.77254104614258 L -28.672000885009766 44.96183776855469 L -29.040090560913086 45.055999755859375 L -29.430999755859375 45.15599822998047 L -29.434499740600586 45.15605163574219 L -29.436052322387695 45.155784606933594 L -30.694000244140625 45.10200119018555 L -30.81075096130371 45.055999755859375 L -31.191999435424805 44.90578842163086 L -31.194608688354492 44.90467071533203 L -31.710535049438477 44.48834228515625 L -31.711999893188477 44.48699951171875 L -31.979999542236328 44.064998626708984 L -32.11744689941406 43.55006790161133 L -32.11811447143555 43.547271728515625 L -32.11811447143555 43.54726028442383 L -32.118133544921875 43.545654296875 L -32.11793518066406 43.5439453125 L -32.05220031738281 42.30790710449219 L -32.051795959472656 42.306095123291016 L -31.68327522277832 41.244361877441406 L -31.682090759277344 41.241172790527344 L -31.68208885192871 41.241172790527344 L -31.681848526000977 41.24052429199219 L -31.68083953857422 41.2385368347168 L -31.679710388183594 41.2365837097168 L -31.679710388183594 41.23657989501953 L -31.651025772094727 41.181236267089844 L -31.536367416381836 40.959999084472656 L -31.156999588012695 40.22800064086914 L -32.768001556396484 38.46253204345703 L -33.36800003051758 37.80500030517578 L -36.45899963378906 33.667999267578125 L -37.00217819213867 32.768001556396484 L -39.125999450683594 29.249000549316406 L -41.34400177001953 24.590999603271484 L -43.09199905395508 19.739999771118164 L -44.35200119018555 14.741999626159668 L -44.80400085449219 11.720999717712402 L -32.768001556396484 11.720999717712402 L -30.16699981689453 11.720999717712402 L -30.16699981689453 4.440892164675075e-17 L -30.16699981689453 -1.4079999923706055 L -32.768001556396484 -1.4079999923706055 L -45 -1.4079999923706055 L -44.35200119018555 -5.742000102996826 L -43.09199905395508 -10.739999771118164 L -41.34400177001953 -15.590999603271484 L -40.96639633178711 -16.384000778198242 L -39.125999450683594 -20.249000549316406 L -36.5145263671875 -24.576000213623047 L -36.45899963378906 -24.667999267578125 L -34.22181701660156 -27.66251564025879 L -34.145999908447266 -27.763999938964844 L -34.145999908447266 -27.764009475708008 L -34.14762496948242 -27.768239974975586 L -34.73028564453125 -29.67159652709961 L -34.730804443359375 -29.67359161376953 L -34.73125457763672 -29.677303314208984 L -34.77607727050781 -30.668323516845703 L -34.7760009765625 -30.670000076293945 L -34.775264739990234 -30.67292022705078 L -34.77460479736328 -30.674131393432617 L -34.426998138427734 -31.702999114990234 L -34.0890007019043 -32.066001892089844 L -33.665000915527344 -32.33100128173828 L -33.66217041015625 -32.331668853759766 L -32.768001556396484 -32.40294647216797 L -32.58727264404297 -32.417354583740234 L -32.125343322753906 -32.45417785644531 L -32.12200164794922 -32.45399856567383 M 33.854000091552734 24.783000946044922 L 32.768001556396484 24.2335147857666 L 32.012001037597656 23.85099983215332 L 29.9689998626709 23.530000686645508 L 27.926000595092773 23.85099983215332 L 26.493114471435547 24.576000213623047 L 26.083999633789062 24.783000946044922 L 24.621999740600586 26.236000061035156 L 23.683000564575195 28.065000534057617 L 23.358999252319336 30.0939998626709 L 23.683000564575195 32.12200164794922 L 24.01447296142578 32.768001556396484 L 24.621999740600586 33.95199966430664 L 26.083999633789062 35.40399932861328 L 27.926000595092773 36.33700180053711 L 29.9689998626709 36.65800094604492 L 32.012001037597656 36.33700180053711 L 32.768001556396484 35.95407485961914 L 33.854000091552734 35.40399932861328 L 35.31700134277344 33.95199966430664 L 35.92452621459961 32.768001556396484 L 36.25600051879883 32.12200164794922 L 36.57899856567383 30.0939998626709 L 36.25600051879883 28.065000534057617 L 35.31700134277344 26.236000061035156 L 33.854000091552734 24.783000946044922 M 3.4739999771118164 -26.42300033569336 L 4.936999797821045 -24.97100067138672 L 5.71683931350708 -24.576000213623047 L 6.7789998054504395 -24.038000106811523 L 8.821999549865723 -23.716999053955078 L 10.86400032043457 -24.038000106811523 L 11.926737785339355 -24.576000213623047 L 12.706999778747559 -24.97100067138672 L 14.168999671936035 -26.42300033569336 L 15.107999801635742 -28.253000259399414 L 15.430999755859375 -30.2810001373291 L 15.107999801635742 -32.310001373291016 L 14.872864723205566 -32.768001556396484 L 14.168999671936035 -34.138999938964844 L 12.706999778747559 -35.59199905395508 L 10.86400032043457 -36.52399826049805 L 8.821999549865723 -36.84600067138672 L 8.192000389099121 -36.7467041015625 L 6.7789998054504395 -36.52399826049805 L 4.936999797821045 -35.59199905395508 L 3.4739999771118164 -34.138999938964844 L 2.7701351642608643 -32.768001556396484 L 2.5350000858306885 -32.310001373291016 L 2.2109999656677246 -30.2810001373291 L 2.5350000858306885 -28.253000259399414 L 3.4739999771118164 -26.42300033569336 M 11.385000228881836 33.314998626708984 L 10.305070877075195 32.768001556396484 L 9.543000221252441 32.38199996948242 L 7.5 32.06100082397461 L 5.456999778747559 32.38199996948242 L 4.694929122924805 32.768001556396484 L 3.615000009536743 33.314998626708984 L 2.1530001163482666 34.766998291015625 L 1.2130000591278076 36.59700012207031 L 0.8899999856948853 38.625 L 1.2130000591278076 40.65299987792969 L 1.3706940412521362 40.959999084472656 L 2.1530001163482666 42.483001708984375 L 3.615000009536743 43.935001373291016 L 5.456999778747559 44.86800003051758 L 7.5 45.18899917602539 L 8.192000389099121 45.08027267456055 L 9.543000221252441 44.86800003051758 L 11.385000228881836 43.935001373291016 L 12.847000122070312 42.483001708984375 L 13.629305839538574 40.959999084472656 L 13.786999702453613 40.65299987792969 L 14.109999656677246 38.625 L 13.786999702453613 36.59700012207031 L 12.847000122070312 34.766998291015625 L 11.385000228881836 33.314998626708984 M 35.595001220703125 -25.090999603271484 L 34.65599822998047 -26.92099952697754 L 33.19300079345703 -28.37299919128418 L 32.768001556396484 -28.588037490844727 L 31.35099983215332 -29.30500030517578 L 29.308000564575195 -29.62700080871582 L 27.266000747680664 -29.30500030517578 L 25.42300033569336 -28.37299919128418 L 23.961000442504883 -26.92099952697754 L 23.02199935913086 -25.090999603271484 L 22.93997573852539 -24.576000213623047 L 22.698999404907227 -23.062999725341797 L 23.02199935913086 -21.034000396728516 L 23.961000442504883 -19.20400047302246 L 24.576000213623047 -18.59320640563965 L 25.42300033569336 -17.75200080871582 L 27.266000747680664 -16.81999969482422 L 29.308000564575195 -16.499000549316406 L 31.35099983215332 -16.81999969482422 L 32.768001556396484 -17.536962509155273 L 33.19300079345703 -17.75200080871582 L 34.65599822998047 -19.20400047302246 L 35.595001220703125 -21.034000396728516 L 35.91899871826172 -23.062999725341797 L 35.677276611328125 -24.576000213623047 L 35.595001220703125 -25.090999603271484 M -15.630000114440918 -29.62700080871582 L -16.384000778198242 -29.508161544799805 L -17.67300033569336 -29.30500030517578 L -19.514999389648438 -28.37299919128418 L -20.976999282836914 -26.92099952697754 L -21.916000366210938 -25.090999603271484 L -21.99827766418457 -24.576000213623047 L -22.239999771118164 -23.062999725341797 L -21.916000366210938 -21.034000396728516 L -20.976999282836914 -19.20400047302246 L -19.514999389648438 -17.75200080871582 L -17.67300033569336 -16.81999969482422 L -16.384000778198242 -16.617469787597656 L -15.630000114440918 -16.499000549316406 L -13.586999893188477 -16.81999969482422 L -11.744999885559082 -17.75200080871582 L -10.281999588012695 -19.20400047302246 L -9.343000411987305 -21.034000396728516 L -9.020000457763672 -23.062999725341797 L -9.26097583770752 -24.576000213623047 L -9.343000411987305 -25.090999603271484 L -10.281999588012695 -26.92099952697754 L -11.744999885559082 -28.37299919128418 L -13.586999893188477 -29.30500030517578 L -15.630000114440918 -29.62700080871582 M -14.968999862670898 22.874000549316406 L -16.384000778198242 23.09632682800293 L -17.011999130249023 23.19499969482422 L -18.854000091552734 24.12700080871582 L -20.316999435424805 25.57900047302246 L -21.256000518798828 27.409000396728516 L -21.57900047302246 29.437999725341797 L -21.256000518798828 31.465999603271484 L -20.58792495727539 32.768001556396484 L -20.316999435424805 33.29600143432617 L -18.854000091552734 34.74800109863281 L -17.011999130249023 35.68000030517578 L -16.384000778198242 35.77898025512695 L -14.968999862670898 36.00199890136719 L -12.925999641418457 35.68000030517578 L -11.083999633789062 34.74800109863281 L -9.621999740600586 33.29600143432617 L -9.351075172424316 32.768001556396484 L -8.682999610900879 31.465999603271484 L -8.359000205993652 29.437999725341797 L -8.682999610900879 27.409000396728516 L -9.621999740600586 25.57900047302246 L -10.63190746307373 24.576000213623047 L -11.083999633789062 24.12700080871582 L -12.925999641418457 23.19499969482422 L -14.968999862670898 22.874000549316406 z" fill="none" stroke="rgb(0,0,255)" stroke-width="0.01mm" />
</svg>